<svg width="19" height="5" viewBox="0 0 19 5" fill="none" xmlns="http://www.w3.org/2000/svg">
<path d="M9.48083 3.30273C10.0331 3.30273 10.4808 2.85502 10.4808 2.30273C10.4808 1.75045 10.0331 1.30273 9.48083 1.30273C8.92855 1.30273 8.48083 1.75045 8.48083 2.30273C8.48083 2.85502 8.92855 3.30273 9.48083 3.30273Z" stroke="#B7B7B7" stroke-width="2" stroke-linecap="round" stroke-linejoin="round"/>
<path d="M16.4808 3.30273C17.0331 3.30273 17.4808 2.85502 17.4808 2.30273C17.4808 1.75045 17.0331 1.30273 16.4808 1.30273C15.9286 1.30273 15.4808 1.75045 15.4808 2.30273C15.4808 2.85502 15.9286 3.30273 16.4808 3.30273Z" stroke="#B7B7B7" stroke-width="2" stroke-linecap="round" stroke-linejoin="round"/>
<path d="M2.48083 3.30273C3.03312 3.30273 3.48083 2.85502 3.48083 2.30273C3.48083 1.75045 3.03312 1.30273 2.48083 1.30273C1.92855 1.30273 1.48083 1.75045 1.48083 2.30273C1.48083 2.85502 1.92855 3.30273 2.48083 3.30273Z" stroke="#B7B7B7" stroke-width="2" stroke-linecap="round" stroke-linejoin="round"/>
</svg>
